<svg xmlns="http://www.w3.org/2000/svg" viewBox="0 0 900 500">
  <defs>
    <linearGradient id="bg93" x1="0%" y1="0%" x2="100%" y2="100%">
      <stop offset="0%" style="stop-color:#10002b"/>
      <stop offset="50%" style="stop-color:#240046"/>
      <stop offset="100%" style="stop-color:#3c096c"/>
    </linearGradient>
    <radialGradient id="glow93" cx="50%" cy="55%" r="45%">
      <stop offset="0%" style="stop-color:#ff6d00;stop-opacity:0.12"/>
      <stop offset="100%" style="stop-color:transparent;stop-opacity:0"/>
    </radialGradient>
    <linearGradient id="floor93" x1="0%" y1="0%" x2="0%" y2="100%">
      <stop offset="0%" style="stop-color:#ff6d00;stop-opacity:0.08"/>
      <stop offset="100%" style="stop-color:#10002b;stop-opacity:0"/>
    </linearGradient>
  </defs>
  <rect width="900" height="500" fill="url(#bg93)"/>
  <ellipse cx="450" cy="380" rx="380" ry="70" fill="url(#glow93)"/>
  <ellipse cx="450" cy="370" rx="320" ry="15" fill="url(#floor93)"/>
  <circle cx="791" cy="191" r="41" fill="#ff6d00" opacity="0.05"/>
  <circle cx="64" cy="238" r="72" fill="#ff6d00" opacity="0.07"/>
  <circle cx="137" cy="285" r="43" fill="#ff6d00" opacity="0.09"/>
  <circle cx="210" cy="332" r="74" fill="#ff6d00" opacity="0.11"/>
  <circle cx="283" cy="79" r="45" fill="#ff6d00" opacity="0.13"/>
  <circle cx="200" cy="280" r="60" fill="none" stroke="#ff6d00" stroke-width="6" opacity="0.8"/>
       <circle cx="200" cy="280" r="50" fill="none" stroke="#ff6d00" stroke-width="2" opacity="0.3"/>
       <circle cx="650" cy="280" r="60" fill="none" stroke="#ff6d00" stroke-width="6" opacity="0.8"/>
       <circle cx="650" cy="280" r="50" fill="none" stroke="#ff6d00" stroke-width="2" opacity="0.3"/>
       <line x1="200" y1="280" x2="370" y2="195" stroke="#ff6d00" stroke-width="5" opacity="0.9"/>
       <line x1="370" y1="195" x2="540" y2="195" stroke="#ff6d00" stroke-width="5" opacity="0.9"/>
       <line x1="540" y1="195" x2="650" y2="280" stroke="#ff6d00" stroke-width="5" opacity="0.9"/>
       <line x1="370" y1="195" x2="410" y2="280" stroke="#ff6d00" stroke-width="4" opacity="0.7"/>
       <line x1="410" y1="280" x2="540" y2="195" stroke="#ff6d00" stroke-width="4" opacity="0.7"/>
       <path d="M350,190 L330,160 L310,155" fill="none" stroke="#ff6d00" stroke-width="4" opacity="0.8"/>
       <line x1="310" y1="155" x2="350" y2="155" stroke="#ff6d00" stroke-width="3" opacity="0.6"/>
       <path d="M540" y1="195" x2="560" y2="175" stroke="#ff6d00" stroke-width="4" opacity="0.8"/>
       <rect x="390" y="205" width="90" height="12" rx="6" fill="#ff6d00" opacity="0.4"/>
  <!-- Brand label -->
  <text x="450" y="430" text-anchor="middle" fill="#ff6d00" font-family="Arial,sans-serif" font-size="13" font-weight="bold" opacity="0.6" letter-spacing="3">CERVÉLO</text>
  <!-- Product name -->
  <text x="450" y="460" text-anchor="middle" fill="#fff" font-family="Arial,sans-serif" font-size="18" font-weight="bold" opacity="0.85">Cervélo Rouvida GRX Di2</text>
  <!-- Corner accent -->
  <rect x="20" y="20" width="60" height="3" rx="1.5" fill="#ff6d00" opacity="0.5"/>
  <rect x="20" y="28" width="30" height="3" rx="1.5" fill="#ff6d00" opacity="0.3"/>
</svg>