<svg xmlns="http://www.w3.org/2000/svg" viewBox="0 0 900 500">
  <defs>
    <linearGradient id="bg54" x1="0%" y1="0%" x2="100%" y2="100%">
      <stop offset="0%" style="stop-color:#000814"/>
      <stop offset="50%" style="stop-color:#001d3d"/>
      <stop offset="100%" style="stop-color:#003566"/>
    </linearGradient>
    <radialGradient id="glow54" cx="50%" cy="55%" r="45%">
      <stop offset="0%" style="stop-color:#ffc300;stop-opacity:0.12"/>
      <stop offset="100%" style="stop-color:transparent;stop-opacity:0"/>
    </radialGradient>
    <linearGradient id="floor54" x1="0%" y1="0%" x2="0%" y2="100%">
      <stop offset="0%" style="stop-color:#ffc300;stop-opacity:0.08"/>
      <stop offset="100%" style="stop-color:#000814;stop-opacity:0"/>
    </linearGradient>
  </defs>
  <rect width="900" height="500" fill="url(#bg54)"/>
  <ellipse cx="450" cy="380" rx="380" ry="70" fill="url(#glow54)"/>
  <ellipse cx="450" cy="370" rx="320" ry="15" fill="url(#floor54)"/>
  <circle cx="248" cy="248" r="38" fill="#ffc300" opacity="0.05"/>
  <circle cx="321" cy="295" r="69" fill="#ffc300" opacity="0.07"/>
  <circle cx="394" cy="342" r="40" fill="#ffc300" opacity="0.09"/>
  <circle cx="467" cy="89" r="71" fill="#ffc300" opacity="0.11"/>
  <circle cx="540" cy="136" r="42" fill="#ffc300" opacity="0.13"/>
  <circle cx="190" cy="285" r="65" fill="none" stroke="#ffc300" stroke-width="4" opacity="0.8"/>
       <circle cx="190" cy="285" r="55" fill="none" stroke="#ffc300" stroke-width="1.5" opacity="0.3"/>
       <circle cx="690" cy="285" r="65" fill="none" stroke="#ffc300" stroke-width="4" opacity="0.8"/>
       <circle cx="690" cy="285" r="55" fill="none" stroke="#ffc300" stroke-width="1.5" opacity="0.3"/>
       <path d="M190,285 L300,230 L430,205 L560,210 L650,235 L690,270" fill="#ffc300" opacity="0.12" stroke="#ffc300" stroke-width="3"/>
       <path d="M430,205 L450,160 L510,140 L560,150 L580,175" fill="#ffc300" opacity="0.2" stroke="#ffc300" stroke-width="2"/>
       <path d="M450,160 L460,130 L490,120 L520,125 L525,145" fill="#ffc300" opacity="0.25"/>
       <path d="M390,220 Q440,210 500,210 L490,220 Q440,220 400,225 Z" fill="#222" opacity="0.8"/>
       <path d="M190,285 L170,260 L185,250" fill="#ffc300" opacity="0.3"/>
  <!-- Brand label -->
  <text x="450" y="430" text-anchor="middle" fill="#ffc300" font-family="Arial,sans-serif" font-size="13" font-weight="bold" opacity="0.6" letter-spacing="3">E-RIDE PRO USA</text>
  <!-- Product name -->
  <text x="450" y="460" text-anchor="middle" fill="#fff" font-family="Arial,sans-serif" font-size="18" font-weight="bold" opacity="0.85">E-Ride Pro SS 2.0 72V</text>
  <!-- Corner accent -->
  <rect x="20" y="20" width="60" height="3" rx="1.5" fill="#ffc300" opacity="0.5"/>
  <rect x="20" y="28" width="30" height="3" rx="1.5" fill="#ffc300" opacity="0.3"/>
</svg>