<svg xmlns="http://www.w3.org/2000/svg" viewBox="0 0 900 500">
  <defs>
    <linearGradient id="bg112" x1="0%" y1="0%" x2="100%" y2="100%">
      <stop offset="0%" style="stop-color:#212529"/>
      <stop offset="50%" style="stop-color:#343a40"/>
      <stop offset="100%" style="stop-color:#495057"/>
    </linearGradient>
    <radialGradient id="glow112" cx="50%" cy="55%" r="45%">
      <stop offset="0%" style="stop-color:#00f5d4;stop-opacity:0.12"/>
      <stop offset="100%" style="stop-color:transparent;stop-opacity:0"/>
    </radialGradient>
    <linearGradient id="floor112" x1="0%" y1="0%" x2="0%" y2="100%">
      <stop offset="0%" style="stop-color:#00f5d4;stop-opacity:0.08"/>
      <stop offset="100%" style="stop-color:#212529;stop-opacity:0"/>
    </linearGradient>
  </defs>
  <rect width="900" height="500" fill="url(#bg112)"/>
  <ellipse cx="450" cy="380" rx="380" ry="70" fill="url(#glow112)"/>
  <ellipse cx="450" cy="370" rx="320" ry="15" fill="url(#floor112)"/>
  <circle cx="194" cy="94" r="64" fill="#00f5d4" opacity="0.05"/>
  <circle cx="267" cy="141" r="35" fill="#00f5d4" opacity="0.07"/>
  <circle cx="340" cy="188" r="66" fill="#00f5d4" opacity="0.09"/>
  <circle cx="413" cy="235" r="37" fill="#00f5d4" opacity="0.11"/>
  <circle cx="486" cy="282" r="68" fill="#00f5d4" opacity="0.13"/>
  <circle cx="200" cy="280" r="55" fill="none" stroke="#00f5d4" stroke-width="3" opacity="0.8"/>
       <circle cx="200" cy="280" r="48" fill="none" stroke="#00f5d4" stroke-width="1" opacity="0.3"/>
       <circle cx="650" cy="280" r="55" fill="none" stroke="#00f5d4" stroke-width="3" opacity="0.8"/>
       <circle cx="650" cy="280" r="48" fill="none" stroke="#00f5d4" stroke-width="1" opacity="0.3"/>
       <line x1="200" y1="280" x2="380" y2="200" stroke="#00f5d4" stroke-width="4" opacity="0.9"/>
       <line x1="380" y1="200" x2="550" y2="200" stroke="#00f5d4" stroke-width="4" opacity="0.9"/>
       <line x1="550" y1="200" x2="650" y2="280" stroke="#00f5d4" stroke-width="4" opacity="0.9"/>
       <line x1="380" y1="200" x2="420" y2="280" stroke="#00f5d4" stroke-width="3" opacity="0.7"/>
       <line x1="420" y1="280" x2="550" y2="200" stroke="#00f5d4" stroke-width="3" opacity="0.7"/>
       <path d="M360,195 L340,170 L320,165" fill="none" stroke="#00f5d4" stroke-width="3" opacity="0.8"/>
       <path d="M550,200 L575,185 L595,185" fill="none" stroke="#00f5d4" stroke-width="3" opacity="0.8"/>
       <rect x="395" y="210" width="80" height="10" rx="5" fill="#00f5d4" opacity="0.4"/>
  <!-- Brand label -->
  <text x="450" y="430" text-anchor="middle" fill="#00f5d4" font-family="Arial,sans-serif" font-size="13" font-weight="bold" opacity="0.6" letter-spacing="3">KALKHOFF</text>
  <!-- Product name -->
  <text x="450" y="460" text-anchor="middle" fill="#fff" font-family="Arial,sans-serif" font-size="18" font-weight="bold" opacity="0.85">Kalkhoff Image 7.B Exc...</text>
  <!-- Corner accent -->
  <rect x="20" y="20" width="60" height="3" rx="1.5" fill="#00f5d4" opacity="0.5"/>
  <rect x="20" y="28" width="30" height="3" rx="1.5" fill="#00f5d4" opacity="0.3"/>
</svg>