<svg xmlns="http://www.w3.org/2000/svg" viewBox="0 0 900 500">
  <defs>
    <linearGradient id="bg36" x1="0%" y1="0%" x2="100%" y2="100%">
      <stop offset="0%" style="stop-color:#1b4332"/>
      <stop offset="50%" style="stop-color:#2d6a4f"/>
      <stop offset="100%" style="stop-color:#40916c"/>
    </linearGradient>
    <radialGradient id="glow36" cx="50%" cy="55%" r="45%">
      <stop offset="0%" style="stop-color:#95d5b2;stop-opacity:0.12"/>
      <stop offset="100%" style="stop-color:transparent;stop-opacity:0"/>
    </radialGradient>
    <linearGradient id="floor36" x1="0%" y1="0%" x2="0%" y2="100%">
      <stop offset="0%" style="stop-color:#95d5b2;stop-opacity:0.08"/>
      <stop offset="100%" style="stop-color:#1b4332;stop-opacity:0"/>
    </linearGradient>
  </defs>
  <rect width="900" height="500" fill="url(#bg36)"/>
  <ellipse cx="450" cy="380" rx="380" ry="70" fill="url(#glow36)"/>
  <ellipse cx="450" cy="370" rx="320" ry="15" fill="url(#floor36)"/>
  <circle cx="182" cy="182" r="32" fill="#95d5b2" opacity="0.05"/>
  <circle cx="255" cy="229" r="63" fill="#95d5b2" opacity="0.07"/>
  <circle cx="328" cy="276" r="34" fill="#95d5b2" opacity="0.09"/>
  <circle cx="401" cy="323" r="65" fill="#95d5b2" opacity="0.11"/>
  <circle cx="474" cy="70" r="36" fill="#95d5b2" opacity="0.13"/>
  <circle cx="190" cy="290" r="58" fill="none" stroke="#95d5b2" stroke-width="5" opacity="0.8"/>
       <circle cx="690" cy="290" r="58" fill="none" stroke="#95d5b2" stroke-width="5" opacity="0.8"/>
       <path d="M190,290 L300,240 L420,220 L560,225 L650,250 L690,280" fill="none" stroke="#95d5b2" stroke-width="4" opacity="0.9"/>
       <path d="M420,220 L440,180 L510,165 L570,175 L590,200" fill="none" stroke="#95d5b2" stroke-width="3" opacity="0.8"/>
       <line x1="300" y1="240" x2="350" y2="290" stroke="#95d5b2" stroke-width="3" opacity="0.6"/>
       <circle cx="500" cy="195" r="15" fill="#95d5b2" opacity="0.2"/>
       <path d="M380,230 Q430,220 490,220 L480,230 Q430,230 390,235 Z" fill="#222" opacity="0.8"/>
       <rect x="660" y="240" width="20" height="12" rx="3" fill="#FFE066" opacity="0.7"/>
  <!-- Brand label -->
  <text x="450" y="430" text-anchor="middle" fill="#95d5b2" font-family="Arial,sans-serif" font-size="13" font-weight="bold" opacity="0.6" letter-spacing="3">EVOLT URBAN</text>
  <!-- Product name -->
  <text x="450" y="460" text-anchor="middle" fill="#fff" font-family="Arial,sans-serif" font-size="18" font-weight="bold" opacity="0.85">City LS 125 Grand Tourer</text>
  <!-- Corner accent -->
  <rect x="20" y="20" width="60" height="3" rx="1.5" fill="#95d5b2" opacity="0.5"/>
  <rect x="20" y="28" width="30" height="3" rx="1.5" fill="#95d5b2" opacity="0.3"/>
</svg>