<svg xmlns="http://www.w3.org/2000/svg" viewBox="0 0 900 500">
  <defs>
    <linearGradient id="bg117" x1="0%" y1="0%" x2="100%" y2="100%">
      <stop offset="0%" style="stop-color:#0d1321"/>
      <stop offset="50%" style="stop-color:#1d2d44"/>
      <stop offset="100%" style="stop-color:#3e5c76"/>
    </linearGradient>
    <radialGradient id="glow117" cx="50%" cy="55%" r="45%">
      <stop offset="0%" style="stop-color:#748cab;stop-opacity:0.12"/>
      <stop offset="100%" style="stop-color:transparent;stop-opacity:0"/>
    </radialGradient>
    <linearGradient id="floor117" x1="0%" y1="0%" x2="0%" y2="100%">
      <stop offset="0%" style="stop-color:#748cab;stop-opacity:0.08"/>
      <stop offset="100%" style="stop-color:#0d1321;stop-opacity:0"/>
    </linearGradient>
  </defs>
  <rect width="900" height="500" fill="url(#bg117)"/>
  <ellipse cx="450" cy="380" rx="380" ry="70" fill="url(#glow117)"/>
  <ellipse cx="450" cy="370" rx="320" ry="15" fill="url(#floor117)"/>
  <circle cx="79" cy="179" r="29" fill="#748cab" opacity="0.05"/>
  <circle cx="152" cy="226" r="60" fill="#748cab" opacity="0.07"/>
  <circle cx="225" cy="273" r="31" fill="#748cab" opacity="0.09"/>
  <circle cx="298" cy="320" r="62" fill="#748cab" opacity="0.11"/>
  <circle cx="371" cy="67" r="33" fill="#748cab" opacity="0.13"/>
  <circle cx="200" cy="280" r="60" fill="none" stroke="#748cab" stroke-width="6" opacity="0.8"/>
       <circle cx="200" cy="280" r="50" fill="none" stroke="#748cab" stroke-width="2" opacity="0.3"/>
       <circle cx="650" cy="280" r="60" fill="none" stroke="#748cab" stroke-width="6" opacity="0.8"/>
       <circle cx="650" cy="280" r="50" fill="none" stroke="#748cab" stroke-width="2" opacity="0.3"/>
       <line x1="200" y1="280" x2="370" y2="195" stroke="#748cab" stroke-width="5" opacity="0.9"/>
       <line x1="370" y1="195" x2="540" y2="195" stroke="#748cab" stroke-width="5" opacity="0.9"/>
       <line x1="540" y1="195" x2="650" y2="280" stroke="#748cab" stroke-width="5" opacity="0.9"/>
       <line x1="370" y1="195" x2="410" y2="280" stroke="#748cab" stroke-width="4" opacity="0.7"/>
       <line x1="410" y1="280" x2="540" y2="195" stroke="#748cab" stroke-width="4" opacity="0.7"/>
       <path d="M350,190 L330,160 L310,155" fill="none" stroke="#748cab" stroke-width="4" opacity="0.8"/>
       <line x1="310" y1="155" x2="350" y2="155" stroke="#748cab" stroke-width="3" opacity="0.6"/>
       <path d="M540" y1="195" x2="560" y2="175" stroke="#748cab" stroke-width="4" opacity="0.8"/>
       <rect x="390" y="205" width="90" height="12" rx="6" fill="#748cab" opacity="0.4"/>
  <!-- Brand label -->
  <text x="450" y="430" text-anchor="middle" fill="#748cab" font-family="Arial,sans-serif" font-size="13" font-weight="bold" opacity="0.6" letter-spacing="3">MOUSTACHE BIKES</text>
  <!-- Product name -->
  <text x="450" y="460" text-anchor="middle" fill="#fff" font-family="Arial,sans-serif" font-size="18" font-weight="bold" opacity="0.85">Moustache Samedi 28.7 ...</text>
  <!-- Corner accent -->
  <rect x="20" y="20" width="60" height="3" rx="1.5" fill="#748cab" opacity="0.5"/>
  <rect x="20" y="28" width="30" height="3" rx="1.5" fill="#748cab" opacity="0.3"/>
</svg>