<svg xmlns="http://www.w3.org/2000/svg" viewBox="0 0 900 500">
  <defs>
    <linearGradient id="bg" x1="0%" y1="0%" x2="100%" y2="100%">
      <stop offset="0%" style="stop-color:#0f2027;stop-opacity:1"/>
      <stop offset="50%" style="stop-color:#203a43;stop-opacity:1"/>
      <stop offset="100%" style="stop-color:#2c5364;stop-opacity:1"/>
    </linearGradient>
    <radialGradient id="glow" cx="50%" cy="65%" r="35%">
      <stop offset="0%" style="stop-color:#ee9b00;stop-opacity:0.12"/>
      <stop offset="100%" style="stop-color:transparent;stop-opacity:0"/>
    </radialGradient>
  </defs>
  <rect width="900" height="500" fill="url(#bg)"/>
  <ellipse cx="450" cy="380" rx="320" ry="50" fill="url(#glow)"/>
  <!-- Wheels -->
  <circle cx="250" cy="320" r="50" fill="none" stroke="#555" stroke-width="6"/>
  <circle cx="250" cy="320" r="42" fill="none" stroke="#444" stroke-width="2"/>
  <circle cx="250" cy="320" r="10" fill="#666"/>
  <circle cx="650" cy="320" r="50" fill="none" stroke="#555" stroke-width="6"/>
  <circle cx="650" cy="320" r="42" fill="none" stroke="#444" stroke-width="2"/>
  <circle cx="650" cy="320" r="10" fill="#666"/>
  <!-- Spokes -->
  <line x1="292" y1="320" x2="208" y2="320" stroke="#4a4a4a" stroke-width="1"/>
  <line x1="283.9787137637478" y1="344.6869805962839" x2="216.0212862362522" y2="295.3130194037161" stroke="#4a4a4a" stroke-width="1"/>
  <line x1="262.9787137637478" y1="359.94437368439645" x2="237.0212862362522" y2="280.05562631560355" stroke="#4a4a4a" stroke-width="1"/>
  <line x1="237.02128623625222" y1="359.94437368439645" x2="262.9787137637478" y2="280.05562631560355" stroke="#4a4a4a" stroke-width="1"/>
  <line x1="216.0212862362522" y1="344.6869805962839" x2="283.9787137637478" y2="295.3130194037161" stroke="#4a4a4a" stroke-width="1"/>
  <line x1="692" y1="320" x2="608" y2="320" stroke="#4a4a4a" stroke-width="1"/>
  <line x1="683.9787137637478" y1="344.6869805962839" x2="616.0212862362522" y2="295.3130194037161" stroke="#4a4a4a" stroke-width="1"/>
  <line x1="662.9787137637478" y1="359.94437368439645" x2="637.0212862362522" y2="280.05562631560355" stroke="#4a4a4a" stroke-width="1"/>
  <line x1="637.0212862362522" y1="359.94437368439645" x2="662.9787137637478" y2="280.05562631560355" stroke="#4a4a4a" stroke-width="1"/>
  <line x1="616.0212862362522" y1="344.6869805962839" x2="683.9787137637478" y2="295.3130194037161" stroke="#4a4a4a" stroke-width="1"/>
  <!-- Frame -->
  <path d="M220,300 L350,230 L500,230 L600,260 L680,300" fill="none" stroke="#005f73" stroke-width="7" stroke-linecap="round"/>
        <path d="M350,230 L390,300 L500,230" fill="none" stroke="#005f73" stroke-width="6" stroke-linecap="round"/>
        <path d="M350,230 L320,190 L300,185" fill="none" stroke="#005f73" stroke-width="5" stroke-linecap="round"/>
        <path d="M500,230 L530,210 L555,210 L565,220" fill="none" stroke="#005f73" stroke-width="5" stroke-linecap="round"/>
        <line x1="390" y1="300" x2="390" y2="260" stroke="#005f73" stroke-width="5"/>
  <rect x="200" y="260" width="150" height="40" rx="5" fill="#ee9b00" opacity="0.3" stroke="#ee9b00" stroke-width="2"/>
        <rect x="210" y="265" width="130" height="30" rx="3" fill="#005f73" opacity="0.2"/>
  <!-- Seat -->
  <ellipse cx="415" cy="252" rx="18" ry="6" fill="#333"/>
  <!-- Label -->
  <text x="450" y="460" text-anchor="middle" fill="#ee9b00" font-family="Arial,sans-serif" font-size="16" font-weight="bold" opacity="0.7">MOUSTACHE LUNDI</text>
</svg>