<svg xmlns="http://www.w3.org/2000/svg" viewBox="0 0 900 500">
  <defs>
    <linearGradient id="bg107" x1="0%" y1="0%" x2="100%" y2="100%">
      <stop offset="0%" style="stop-color:#0d1b2a"/>
      <stop offset="50%" style="stop-color:#1b263b"/>
      <stop offset="100%" style="stop-color:#415a77"/>
    </linearGradient>
    <radialGradient id="glow107" cx="50%" cy="55%" r="45%">
      <stop offset="0%" style="stop-color:#ffd60a;stop-opacity:0.12"/>
      <stop offset="100%" style="stop-color:transparent;stop-opacity:0"/>
    </radialGradient>
    <linearGradient id="floor107" x1="0%" y1="0%" x2="0%" y2="100%">
      <stop offset="0%" style="stop-color:#ffd60a;stop-opacity:0.08"/>
      <stop offset="100%" style="stop-color:#0d1b2a;stop-opacity:0"/>
    </linearGradient>
  </defs>
  <rect width="900" height="500" fill="url(#bg107)"/>
  <ellipse cx="450" cy="380" rx="380" ry="70" fill="url(#glow107)"/>
  <ellipse cx="450" cy="370" rx="320" ry="15" fill="url(#floor107)"/>
  <circle cx="309" cy="309" r="39" fill="#ffd60a" opacity="0.05"/>
  <circle cx="382" cy="56" r="70" fill="#ffd60a" opacity="0.07"/>
  <circle cx="455" cy="103" r="41" fill="#ffd60a" opacity="0.09"/>
  <circle cx="528" cy="150" r="72" fill="#ffd60a" opacity="0.11"/>
  <circle cx="601" cy="197" r="43" fill="#ffd60a" opacity="0.13"/>
  <circle cx="200" cy="280" r="52" fill="none" stroke="#ffd60a" stroke-width="4" opacity="0.8"/>
       <circle cx="650" cy="280" r="52" fill="none" stroke="#ffd60a" stroke-width="4" opacity="0.8"/>
       <path d="M200,280 L350,220 Q420,250 500,220 L650,280" fill="none" stroke="#ffd60a" stroke-width="4" opacity="0.9"/>
       <line x1="350" y1="220" x2="400" y2="280" stroke="#ffd60a" stroke-width="3" opacity="0.7"/>
       <path d="M330,215 L310,180 L295,175" fill="none" stroke="#ffd60a" stroke-width="3" opacity="0.8"/>
       <path d="M500,220 L520,195 L540,195" fill="none" stroke="#ffd60a" stroke-width="3" opacity="0.8"/>
       <rect x="380" y="230" width="70" height="8" rx="4" fill="#ffd60a" opacity="0.4"/>
       <path d="M350,220 L360,200 Q400,190 440,200 L500,220" fill="#ffd60a" opacity="0.15"/>
  <!-- Brand label -->
  <text x="450" y="430" text-anchor="middle" fill="#ffd60a" font-family="Arial,sans-serif" font-size="13" font-weight="bold" opacity="0.6" letter-spacing="3">RIESE & MÜLLER</text>
  <!-- Product name -->
  <text x="450" y="460" text-anchor="middle" fill="#fff" font-family="Arial,sans-serif" font-size="18" font-weight="bold" opacity="0.85">Riese & Müller Superch...</text>
  <!-- Corner accent -->
  <rect x="20" y="20" width="60" height="3" rx="1.5" fill="#ffd60a" opacity="0.5"/>
  <rect x="20" y="28" width="30" height="3" rx="1.5" fill="#ffd60a" opacity="0.3"/>
</svg>