<svg xmlns="http://www.w3.org/2000/svg" viewBox="0 0 900 500">
  <defs>
    <linearGradient id="bg110" x1="0%" y1="0%" x2="100%" y2="100%">
      <stop offset="0%" style="stop-color:#014f86"/>
      <stop offset="50%" style="stop-color:#2a6f97"/>
      <stop offset="100%" style="stop-color:#2c7da0"/>
    </linearGradient>
    <radialGradient id="glow110" cx="50%" cy="55%" r="45%">
      <stop offset="0%" style="stop-color:#a8dadc;stop-opacity:0.12"/>
      <stop offset="100%" style="stop-color:transparent;stop-opacity:0"/>
    </radialGradient>
    <linearGradient id="floor110" x1="0%" y1="0%" x2="0%" y2="100%">
      <stop offset="0%" style="stop-color:#a8dadc;stop-opacity:0.08"/>
      <stop offset="100%" style="stop-color:#014f86;stop-opacity:0"/>
    </linearGradient>
  </defs>
  <rect width="900" height="500" fill="url(#bg110)"/>
  <ellipse cx="450" cy="380" rx="380" ry="70" fill="url(#glow110)"/>
  <ellipse cx="450" cy="370" rx="320" ry="15" fill="url(#floor110)"/>
  <circle cx="720" cy="120" r="30" fill="#a8dadc" opacity="0.05"/>
  <circle cx="793" cy="167" r="61" fill="#a8dadc" opacity="0.07"/>
  <circle cx="66" cy="214" r="32" fill="#a8dadc" opacity="0.09"/>
  <circle cx="139" cy="261" r="63" fill="#a8dadc" opacity="0.11"/>
  <circle cx="212" cy="308" r="34" fill="#a8dadc" opacity="0.13"/>
  <circle cx="180" cy="290" r="50" fill="none" stroke="#a8dadc" stroke-width="4" opacity="0.8"/>
       <circle cx="680" cy="290" r="50" fill="none" stroke="#a8dadc" stroke-width="4" opacity="0.8"/>
       <line x1="180" y1="290" x2="350" y2="210" stroke="#a8dadc" stroke-width="5" opacity="0.9"/>
       <line x1="350" y1="210" x2="550" y2="210" stroke="#a8dadc" stroke-width="5" opacity="0.9"/>
       <line x1="550" y1="210" x2="680" y2="290" stroke="#a8dadc" stroke-width="5" opacity="0.9"/>
       <rect x="100" y="240" width="160" height="50" rx="8" fill="#a8dadc" opacity="0.2" stroke="#a8dadc" stroke-width="2"/>
       <rect x="110" y="250" width="140" height="30" rx="4" fill="#a8dadc" opacity="0.1"/>
       <path d="M350,210 L390,290" stroke="#a8dadc" stroke-width="4" opacity="0.7"/>
       <path d="M330,205 L310,175" fill="none" stroke="#a8dadc" stroke-width="3" opacity="0.8"/>
  <!-- Brand label -->
  <text x="450" y="430" text-anchor="middle" fill="#a8dadc" font-family="Arial,sans-serif" font-size="13" font-weight="bold" opacity="0.6" letter-spacing="3">SPECIALIZED</text>
  <!-- Product name -->
  <text x="450" y="460" text-anchor="middle" fill="#fff" font-family="Arial,sans-serif" font-size="18" font-weight="bold" opacity="0.85">Specialized Turbo Vado...</text>
  <!-- Corner accent -->
  <rect x="20" y="20" width="60" height="3" rx="1.5" fill="#a8dadc" opacity="0.5"/>
  <rect x="20" y="28" width="30" height="3" rx="1.5" fill="#a8dadc" opacity="0.3"/>
</svg>