<svg xmlns="http://www.w3.org/2000/svg" viewBox="0 0 900 500">
  <defs>
    <linearGradient id="bg140" x1="0%" y1="0%" x2="100%" y2="100%">
      <stop offset="0%" style="stop-color:#014f86"/>
      <stop offset="50%" style="stop-color:#2a6f97"/>
      <stop offset="100%" style="stop-color:#2c7da0"/>
    </linearGradient>
    <radialGradient id="glow140" cx="50%" cy="55%" r="45%">
      <stop offset="0%" style="stop-color:#a8dadc;stop-opacity:0.12"/>
      <stop offset="100%" style="stop-color:transparent;stop-opacity:0"/>
    </radialGradient>
    <linearGradient id="floor140" x1="0%" y1="0%" x2="0%" y2="100%">
      <stop offset="0%" style="stop-color:#a8dadc;stop-opacity:0.08"/>
      <stop offset="100%" style="stop-color:#014f86;stop-opacity:0"/>
    </linearGradient>
  </defs>
  <rect width="900" height="500" fill="url(#bg140)"/>
  <ellipse cx="450" cy="380" rx="380" ry="70" fill="url(#glow140)"/>
  <ellipse cx="450" cy="370" rx="320" ry="15" fill="url(#floor140)"/>
  <circle cx="830" cy="330" r="60" fill="#a8dadc" opacity="0.05"/>
  <circle cx="103" cy="77" r="31" fill="#a8dadc" opacity="0.07"/>
  <circle cx="176" cy="124" r="62" fill="#a8dadc" opacity="0.09"/>
  <circle cx="249" cy="171" r="33" fill="#a8dadc" opacity="0.11"/>
  <circle cx="322" cy="218" r="64" fill="#a8dadc" opacity="0.13"/>
  <circle cx="180" cy="290" r="60" fill="none" stroke="#a8dadc" stroke-width="5" opacity="0.8"/>
       <circle cx="180" cy="290" r="50" fill="none" stroke="#a8dadc" stroke-width="2" opacity="0.3"/>
       <circle cx="700" cy="290" r="60" fill="none" stroke="#a8dadc" stroke-width="5" opacity="0.8"/>
       <circle cx="700" cy="290" r="50" fill="none" stroke="#a8dadc" stroke-width="2" opacity="0.3"/>
       <path d="M180,290 L280,230 L400,200 L550,195 L650,220 L700,260 L720,290" fill="#a8dadc" opacity="0.15" stroke="#a8dadc" stroke-width="2"/>
       <path d="M400,200 L420,160 L500,145 L570,155 L600,180 L600,210" fill="#a8dadc" opacity="0.2" stroke="#a8dadc" stroke-width="2"/>
       <path d="M650,220 L680,200 L710,210" fill="#a8dadc" opacity="0.3"/>
       <ellipse cx="680" cy="225" rx="12" ry="8" fill="#FFE066" opacity="0.8"/>
       <path d="M350,230 Q420,215 500,215 L490,225 Q420,225 360,235 Z" fill="#222" opacity="0.8"/>
  <!-- Brand label -->
  <text x="450" y="430" text-anchor="middle" fill="#a8dadc" font-family="Arial,sans-serif" font-size="13" font-weight="bold" opacity="0.6" letter-spacing="3">SUR-RON</text>
  <!-- Product name -->
  <text x="450" y="460" text-anchor="middle" fill="#fff" font-family="Arial,sans-serif" font-size="18" font-weight="bold" opacity="0.85">Sur-Ron Ultra Bee R (R...</text>
  <!-- Corner accent -->
  <rect x="20" y="20" width="60" height="3" rx="1.5" fill="#a8dadc" opacity="0.5"/>
  <rect x="20" y="28" width="30" height="3" rx="1.5" fill="#a8dadc" opacity="0.3"/>
</svg>