<svg xmlns="http://www.w3.org/2000/svg" viewBox="0 0 900 500">
  <defs>
    <linearGradient id="bg" x1="0%" y1="0%" x2="100%" y2="100%">
      <stop offset="0%" style="stop-color:#1a1a2e;stop-opacity:1"/>
      <stop offset="100%" style="stop-color:#16213e;stop-opacity:1"/>
    </linearGradient>
    <radialGradient id="glow" cx="50%" cy="60%" r="40%">
      <stop offset="0%" style="stop-color:#caf0f8;stop-opacity:0.15"/>
      <stop offset="100%" style="stop-color:transparent;stop-opacity:0"/>
    </radialGradient>
  </defs>
  <rect width="900" height="500" fill="url(#bg)"/>
  <ellipse cx="450" cy="380" rx="350" ry="60" fill="url(#glow)"/>
  <circle cx="220" cy="320" r="65" fill="none" stroke="#444" stroke-width="8"/>
  <circle cx="220" cy="320" r="55" fill="none" stroke="#333" stroke-width="3"/>
  <circle cx="220" cy="320" r="15" fill="#555"/>
  <circle cx="680" cy="320" r="65" fill="none" stroke="#444" stroke-width="8"/>
  <circle cx="680" cy="320" r="55" fill="none" stroke="#333" stroke-width="3"/>
  <circle cx="680" cy="320" r="15" fill="#555"/>
  <path d="M180,280 L230,250 L330,235 L430,225 L530,230 L620,245 L670,270 L690,290 L680,305 L600,315 L500,320 L400,320 L300,315 L220,305 L180,295 Z" fill="#0077b6" stroke="#caf0f8" stroke-width="2"/>
        <path d="M330,235 L360,200 L430,185 L500,180 L550,190 L580,210 L580,240" fill="#0077b6" stroke="#caf0f8" stroke-width="2" opacity="0.9"/>
        <circle cx="400" cy="210" r="25" fill="#caf0f8" opacity="0.3"/>
  <rect x="350" y="195" width="100" height="8" rx="4" fill="#caf0f8" opacity="0.5"/>
  <path d="M350,210 Q400,195 480,195 Q520,195 540,205 L530,215 Q490,205 440,205 Q390,205 360,215 Z" fill="#222" stroke="#333" stroke-width="1"/>
  <ellipse cx="640" cy="240" rx="15" ry="12" fill="#FFE066" opacity="0.8"/>
  <ellipse cx="640" cy="240" rx="8" ry="6" fill="#FFF" opacity="0.9"/>
  <text x="450" y="460" text-anchor="middle" fill="#caf0f8" font-family="Arial,sans-serif" font-size="16" font-weight="bold" opacity="0.7">LB 2 Route</text>
</svg>