<svg xmlns="http://www.w3.org/2000/svg" viewBox="0 0 900 500">
  <defs>
    <linearGradient id="bg121" x1="0%" y1="0%" x2="100%" y2="100%">
      <stop offset="0%" style="stop-color:#1a1a2e"/>
      <stop offset="50%" style="stop-color:#16213e"/>
      <stop offset="100%" style="stop-color:#0f3460"/>
    </linearGradient>
    <radialGradient id="glow121" cx="50%" cy="55%" r="45%">
      <stop offset="0%" style="stop-color:#e94560;stop-opacity:0.12"/>
      <stop offset="100%" style="stop-color:transparent;stop-opacity:0"/>
    </radialGradient>
    <linearGradient id="floor121" x1="0%" y1="0%" x2="0%" y2="100%">
      <stop offset="0%" style="stop-color:#e94560;stop-opacity:0.08"/>
      <stop offset="100%" style="stop-color:#1a1a2e;stop-opacity:0"/>
    </linearGradient>
  </defs>
  <rect width="900" height="500" fill="url(#bg121)"/>
  <ellipse cx="450" cy="380" rx="380" ry="70" fill="url(#glow121)"/>
  <ellipse cx="450" cy="370" rx="320" ry="15" fill="url(#floor121)"/>
  <circle cx="627" cy="127" r="37" fill="#e94560" opacity="0.05"/>
  <circle cx="700" cy="174" r="68" fill="#e94560" opacity="0.07"/>
  <circle cx="773" cy="221" r="39" fill="#e94560" opacity="0.09"/>
  <circle cx="846" cy="268" r="70" fill="#e94560" opacity="0.11"/>
  <circle cx="119" cy="315" r="41" fill="#e94560" opacity="0.13"/>
  <circle cx="200" cy="280" r="60" fill="none" stroke="#e94560" stroke-width="6" opacity="0.8"/>
       <circle cx="200" cy="280" r="50" fill="none" stroke="#e94560" stroke-width="2" opacity="0.3"/>
       <circle cx="650" cy="280" r="60" fill="none" stroke="#e94560" stroke-width="6" opacity="0.8"/>
       <circle cx="650" cy="280" r="50" fill="none" stroke="#e94560" stroke-width="2" opacity="0.3"/>
       <line x1="200" y1="280" x2="370" y2="195" stroke="#e94560" stroke-width="5" opacity="0.9"/>
       <line x1="370" y1="195" x2="540" y2="195" stroke="#e94560" stroke-width="5" opacity="0.9"/>
       <line x1="540" y1="195" x2="650" y2="280" stroke="#e94560" stroke-width="5" opacity="0.9"/>
       <line x1="370" y1="195" x2="410" y2="280" stroke="#e94560" stroke-width="4" opacity="0.7"/>
       <line x1="410" y1="280" x2="540" y2="195" stroke="#e94560" stroke-width="4" opacity="0.7"/>
       <path d="M350,190 L330,160 L310,155" fill="none" stroke="#e94560" stroke-width="4" opacity="0.8"/>
       <line x1="310" y1="155" x2="350" y2="155" stroke="#e94560" stroke-width="3" opacity="0.6"/>
       <path d="M540" y1="195" x2="560" y2="175" stroke="#e94560" stroke-width="4" opacity="0.8"/>
       <rect x="390" y="205" width="90" height="12" rx="6" fill="#e94560" opacity="0.4"/>
  <!-- Brand label -->
  <text x="450" y="430" text-anchor="middle" fill="#e94560" font-family="Arial,sans-serif" font-size="13" font-weight="bold" opacity="0.6" letter-spacing="3">TENWAYS</text>
  <!-- Product name -->
  <text x="450" y="460" text-anchor="middle" fill="#fff" font-family="Arial,sans-serif" font-size="18" font-weight="bold" opacity="0.85">Tenways CGO800S Capteu...</text>
  <!-- Corner accent -->
  <rect x="20" y="20" width="60" height="3" rx="1.5" fill="#e94560" opacity="0.5"/>
  <rect x="20" y="28" width="30" height="3" rx="1.5" fill="#e94560" opacity="0.3"/>
</svg>