<svg xmlns="http://www.w3.org/2000/svg" viewBox="0 0 900 500">
  <defs>
    <linearGradient id="bg99" x1="0%" y1="0%" x2="100%" y2="100%">
      <stop offset="0%" style="stop-color:#000814"/>
      <stop offset="50%" style="stop-color:#001d3d"/>
      <stop offset="100%" style="stop-color:#003566"/>
    </linearGradient>
    <radialGradient id="glow99" cx="50%" cy="55%" r="45%">
      <stop offset="0%" style="stop-color:#ffc300;stop-opacity:0.12"/>
      <stop offset="100%" style="stop-color:transparent;stop-opacity:0"/>
    </radialGradient>
    <linearGradient id="floor99" x1="0%" y1="0%" x2="0%" y2="100%">
      <stop offset="0%" style="stop-color:#ffc300;stop-opacity:0.08"/>
      <stop offset="100%" style="stop-color:#000814;stop-opacity:0"/>
    </linearGradient>
  </defs>
  <rect width="900" height="500" fill="url(#bg99)"/>
  <ellipse cx="450" cy="380" rx="380" ry="70" fill="url(#glow99)"/>
  <ellipse cx="450" cy="370" rx="320" ry="15" fill="url(#floor99)"/>
  <circle cx="813" cy="113" r="23" fill="#ffc300" opacity="0.05"/>
  <circle cx="86" cy="160" r="54" fill="#ffc300" opacity="0.07"/>
  <circle cx="159" cy="207" r="25" fill="#ffc300" opacity="0.09"/>
  <circle cx="232" cy="254" r="56" fill="#ffc300" opacity="0.11"/>
  <circle cx="305" cy="301" r="27" fill="#ffc300" opacity="0.13"/>
  <circle cx="200" cy="280" r="52" fill="none" stroke="#ffc300" stroke-width="4" opacity="0.8"/>
       <circle cx="650" cy="280" r="52" fill="none" stroke="#ffc300" stroke-width="4" opacity="0.8"/>
       <path d="M200,280 L350,220 Q420,250 500,220 L650,280" fill="none" stroke="#ffc300" stroke-width="4" opacity="0.9"/>
       <line x1="350" y1="220" x2="400" y2="280" stroke="#ffc300" stroke-width="3" opacity="0.7"/>
       <path d="M330,215 L310,180 L295,175" fill="none" stroke="#ffc300" stroke-width="3" opacity="0.8"/>
       <path d="M500,220 L520,195 L540,195" fill="none" stroke="#ffc300" stroke-width="3" opacity="0.8"/>
       <rect x="380" y="230" width="70" height="8" rx="4" fill="#ffc300" opacity="0.4"/>
       <path d="M350,220 L360,200 Q400,190 440,200 L500,220" fill="#ffc300" opacity="0.15"/>
  <!-- Brand label -->
  <text x="450" y="430" text-anchor="middle" fill="#ffc300" font-family="Arial,sans-serif" font-size="13" font-weight="bold" opacity="0.6" letter-spacing="3">URBAN ARROW</text>
  <!-- Product name -->
  <text x="450" y="460" text-anchor="middle" fill="#fff" font-family="Arial,sans-serif" font-size="18" font-weight="bold" opacity="0.85">Urban Arrow Family Car...</text>
  <!-- Corner accent -->
  <rect x="20" y="20" width="60" height="3" rx="1.5" fill="#ffc300" opacity="0.5"/>
  <rect x="20" y="28" width="30" height="3" rx="1.5" fill="#ffc300" opacity="0.3"/>
</svg>